<svg width="94" height="94" viewBox="0 0 94 94" fill="none" xmlns="http://www.w3.org/2000/svg">
<path d="M43.2792 58.5541L36.0334 65.7999C34.5059 67.3274 32.0775 67.3274 30.5109 65.8391C30.08 65.4083 29.6492 65.0166 29.2184 64.5858C25.2577 60.5986 21.6048 56.3172 18.2909 51.7783C15.0792 47.3133 12.4942 42.8483 10.6142 38.4224C8.77337 33.9574 7.83337 29.6883 7.83337 25.6149C7.83337 22.9516 8.30337 20.4058 9.24337 18.0558C10.1834 15.6666 11.6717 13.4733 13.7475 11.5149C16.2542 9.04742 18.9959 7.83325 21.8942 7.83325C22.9909 7.83325 24.0875 8.06825 25.0667 8.53825C26.085 9.00825 26.9859 9.71325 27.6909 10.7316L36.7775 23.5391C37.4825 24.5183 37.9917 25.4191 38.3442 26.2808C38.6967 27.1033 38.8925 27.9258 38.8925 28.6699C38.8925 29.6099 38.6184 30.5499 38.07 31.4508C37.5609 32.3516 36.8167 33.2916 35.8767 34.2316L32.9 37.3258C32.4692 37.7566 32.2734 38.2658 32.2734 38.8924C32.2734 39.2058 32.3125 39.4799 32.3909 39.7933C32.5084 40.1066 32.6259 40.3416 32.7042 40.5766C33.4092 41.8691 34.6234 43.5533 36.3467 45.5899C38.1092 47.6266 39.9892 49.7024 42.0259 51.7783C42.4175 52.1699 42.8484 52.5616 43.24 52.9533C44.8067 54.4808 44.8459 56.9874 43.2792 58.5541ZM86.0492 71.7924C86.044 73.2705 85.7095 74.7289 85.07 76.0616C84.4042 77.4716 83.5426 78.8033 82.4067 80.0566C80.4876 82.1716 78.3725 83.6991 75.9834 84.6783C75.9442 84.6783 75.905 84.7174 75.8659 84.7174C73.555 85.6574 71.0484 86.1666 68.3459 86.1666C64.3509 86.1666 60.0817 85.2266 55.5775 83.3074C51.0734 81.3883 46.5692 78.8033 42.1042 75.5524C40.5767 74.4166 39.0492 73.2808 37.6 72.0666L50.4075 59.2591C51.5042 60.0816 52.4834 60.7083 53.3059 61.1391C53.5017 61.2174 53.7367 61.3349 54.0109 61.4524C54.3242 61.5699 54.6375 61.6091 54.99 61.6091C55.6559 61.6091 56.165 61.3741 56.5959 60.9433L59.5725 58.0058C60.5517 57.0266 61.4917 56.2824 62.3925 55.8124C63.2934 55.2641 64.1942 54.9899 65.1734 54.9899C65.9175 54.9899 66.7009 55.1466 67.5625 55.4991C68.4242 55.8516 69.325 56.3608 70.3042 57.0266L83.2684 66.2308C84.2867 66.9358 84.9917 67.7583 85.4225 68.7374C85.8142 69.7166 86.0492 70.6958 86.0492 71.7924Z" fill="white"/>
</svg>
