<svg width="38" height="37" viewBox="0 0 38 37" fill="none" xmlns="http://www.w3.org/2000/svg">
<path d="M37.7136 2C37.7136 1.17332 37.0406 0.503161 36.2104 0.503161L22.6821 0.503161C21.8519 0.503161 21.1789 1.17332 21.1789 2C21.1789 2.82668 21.8519 3.49684 22.6821 3.49684L34.7073 3.49684V15.4715C34.7073 16.2982 35.3803 16.9684 36.2104 16.9684C37.0406 16.9684 37.7136 16.2982 37.7136 15.4715V2ZM12.7678 23.2273C12.1808 23.8118 12.1808 24.7596 12.7678 25.3441C13.3548 25.9287 14.3066 25.9287 14.8936 25.3441L12.7678 23.2273ZM35.1476 0.941575L12.7678 23.2273L14.8936 25.3441L37.2733 3.05842L35.1476 0.941575Z" fill="#252525"/>
<path d="M11.2104 4.57153L5.21037 4.57153C3.55352 4.57153 2.21037 5.91468 2.21037 7.57153V32.0001C2.21037 33.657 3.55352 35.0001 5.21037 35.0001H29.7673C31.4242 35.0001 32.7673 33.657 32.7673 32.0001V26" stroke="#252525" stroke-width="3" stroke-linecap="round"/>
</svg>
