<svg width="94" height="94" viewBox="0 0 94 94" fill="none" xmlns="http://www.w3.org/2000/svg">
<g clip-path="url(#clip0_155_8)">
<path d="M74.4167 11.75H19.5833C15.2571 11.75 11.75 15.2571 11.75 19.5833V74.4167C11.75 78.7429 15.2571 82.25 19.5833 82.25H74.4167C78.7429 82.25 82.25 78.7429 82.25 74.4167V19.5833C82.25 15.2571 78.7429 11.75 74.4167 11.75ZM33.2917 68.5417C33.2917 69.6232 32.4149 70.5 31.3333 70.5H25.4583C24.3768 70.5 23.5 69.6232 23.5 68.5417V41.125C23.5 40.0434 24.3768 39.1667 25.4583 39.1667H31.3333C32.4149 39.1667 33.2917 40.0434 33.2917 41.125V68.5417ZM28.3958 35.25C25.1512 35.25 22.5208 32.6197 22.5208 29.375C22.5208 26.1303 25.1512 23.5 28.3958 23.5C31.6405 23.5 34.2708 26.1303 34.2708 29.375C34.2708 32.6197 31.6405 35.25 28.3958 35.25ZM70.5 68.5417C70.5 69.6232 69.6232 70.5 68.5417 70.5H62.6667C61.5851 70.5 60.7083 69.6232 60.7083 68.5417V53.8542C60.7083 50.6095 58.078 47.9792 54.8333 47.9792C51.5887 47.9792 48.9583 50.6095 48.9583 53.8542V68.5417C48.9583 69.6232 48.0816 70.5 47 70.5H41.125C40.0434 70.5 39.1667 69.6232 39.1667 68.5417V41.125C39.1667 40.0434 40.0434 39.1667 41.125 39.1667H47C48.0816 39.1667 48.9583 40.0434 48.9583 41.125V43.475C51.3407 39.8498 55.5267 37.8321 59.8467 38.2267C66.0256 38.9885 70.6271 44.3005 70.5 50.525V68.5417Z" fill="white"/>
</g>
<defs>
<clipPath id="clip0_155_8">
<rect width="94" height="94" fill="white"/>
</clipPath>
</defs>
</svg>
