<svg width="38" height="37" viewBox="0 0 38 37" fill="none" xmlns="http://www.w3.org/2000/svg">
<path d="M37.5032 2C37.5032 1.17332 36.8302 0.503161 36 0.503161L22.4716 0.503161C21.6414 0.503161 20.9685 1.17332 20.9685 2C20.9685 2.82668 21.6414 3.49684 22.4716 3.49684L34.4968 3.49684V15.4715C34.4968 16.2982 35.1698 16.9684 36 16.9684C36.8302 16.9684 37.5032 16.2982 37.5032 15.4715V2ZM12.5574 23.2273C11.9703 23.8118 11.9703 24.7596 12.5574 25.3441C13.1444 25.9287 14.0961 25.9287 14.6831 25.3441L12.5574 23.2273ZM34.9371 0.941575L12.5574 23.2273L14.6831 25.3441L37.0629 3.05842L34.9371 0.941575Z" fill="white"/>
<path d="M11 4.57153L4.99992 4.57153C3.34307 4.57153 1.99992 5.91468 1.99992 7.57153V32.0001C1.99992 33.657 3.34307 35.0001 4.99992 35.0001H29.5569C31.2137 35.0001 32.5569 33.657 32.5569 32.0001V26" stroke="white" stroke-width="3" stroke-linecap="round"/>
</svg>
