<svg width="94" height="94" viewBox="0 0 94 94" fill="none" xmlns="http://www.w3.org/2000/svg">
<path d="M61.0608 48.5667L61.0608 64.5075C61.0608 65.9175 60.9041 67.2492 60.5516 68.4633C59.1024 74.2208 54.3241 77.8242 47.7441 77.8242H37.0908L25.2624 85.6967C24.8659 85.9681 24.4026 86.1256 23.9228 86.1521C23.443 86.1786 22.9651 86.0731 22.5411 85.8469C22.1172 85.6208 21.7633 85.2828 21.518 84.8696C21.2727 84.4564 21.1454 83.9838 21.1499 83.5033L21.1499 77.8242C17.1549 77.8242 13.8258 76.4925 11.5149 74.1817C9.16492 71.8317 7.83325 68.5025 7.83325 64.5075L7.83325 48.5667C7.83325 41.125 12.4549 35.9942 19.5833 35.3283C20.0924 35.2892 20.6016 35.25 21.1499 35.25L47.7441 35.25C55.7341 35.25 61.0608 40.5767 61.0608 48.5667Z" fill="white"/>
<path d="M69.5208 61.0999C74.4949 61.0999 78.6858 59.4549 81.5841 56.5174C84.5216 53.6191 86.1666 49.4283 86.1666 44.4541V24.4791C86.1666 15.2749 78.7249 7.83325 69.5208 7.83325L36.2291 7.83325C27.0249 7.83325 19.5833 15.2749 19.5833 24.4791V27.4166C19.5833 28.5133 20.4449 29.3749 21.5416 29.3749L47.7441 29.3749C58.3583 29.3749 66.9358 37.9524 66.9358 48.5666V59.1416C66.9358 60.2383 67.7974 61.0999 68.8941 61.0999H69.5208Z" fill="white"/>
</svg>
